# xmcd CD database file
#
# Track frame offsets:
#	150
#	18357
#	40900
#	63197
#	83042
#	108055
#	130365
#	153322
#	175692
#	199777
#	228212
#
# Disc length: 3236 seconds
#
# Revision: 0
# Processed by: cddbd v1.5PL3 Copyright (c) Steve Scherf et al.
# Submitted via: CDex 1.50beta8
#
DISCID=7c0ca20b
DTITLE=青山陽一 - One Or Six
DYEAR=1900
DGENRE=Rock
TTITLE0=Iko Iko Iko
TTITLE1=King Of Diving
TTITLE2=Vampire
TTITLE3=左足が泣いている
TTITLE4=Cyclone
TTITLE5=発覚
TTITLE6=緑の大群
TTITLE7=Queen Bee
TTITLE8=Million Miles Long Hair
TTITLE9=Big Black Pool
TTITLE10=紅茶ブルース
EXTD=
EXTT0=
EXTT1=
EXTT2=
EXTT3=
EXTT4=
EXTT5=
EXTT6=
EXTT7=
EXTT8=
EXTT9=
EXTT10=
PLAYORDER=
